<svg xmlns="http://www.w3.org/2000/svg" width="683" height="490" viewBox="0 0 683 490">
  <g id="Group_19119" data-name="Group 19119" transform="translate(-960 -1975)">
    <g id="Group_19108" data-name="Group 19108" transform="translate(152 -0.463)">
      <path id="Path_18870" data-name="Path 18870" d="M616.449,202.233c-.272-.141,3.962-3.22,6.174-4.807a3.919,3.919,0,0,1,2.873-.691l6.914,1.036a.756.756,0,0,1,.359,1.344c-1.99,1.54-5.449,4.218-5.854,4.543C626.341,204.117,619.086,203.61,616.449,202.233Z" transform="translate(291.938 2020.227)" fill="#7595ec"/>
      <path id="Path_18871" data-name="Path 18871" d="M612.835,150.987s1.624,2.448,1.706,4.1c.205,4.116-.619,7.717-5.557,8.849l-2.264-11.525Z" transform="translate(287.755 2000.931)"/>
      <path id="Path_18872" data-name="Path 18872" d="M591.479,348.622l-.277,2.486a1.985,1.985,0,0,0-.828,2.486c.553,1.8,8.425,16.576,8.425,16.576s1.783,4.973,6.077,4.973c5.526,0,4.7-2.348,4.7-2.348a4.283,4.283,0,0,1-3.316-3.868c-.138-3.176-2.654-13.278-2.654-13.278l.208-5.416Z" transform="translate(280.708 2084.511)" fill="#f8b58e"/>
      <path id="Path_18873" data-name="Path 18873" d="M605.972,368.927c-.138-3.176-2.655-13.278-2.655-13.278l.208-5.416-12.333-1.611-.277,2.486L598.6,354.7Z" transform="translate(280.99 2084.511)" fill="#f49466"/>
      <path id="Path_18874" data-name="Path 18874" d="M592.136,350.366a1.985,1.985,0,0,0-.828,2.486c.553,1.8,8.425,16.576,8.425,16.576s1.783,4.973,6.077,4.973c5.526,0,4.7-2.348,4.7-2.348s5.385,3.021,5.611,4.153a4.969,4.969,0,0,1-.453,2.568s-9.288.982-12.309,0-3.021-1.207-3.248-1.963-3.246-9.968-5.74-12.007l.68,10.5h-1.585s-.831-9.818-3.7-13.291a4.6,4.6,0,0,1-1.585-4.532,18.729,18.729,0,0,1,2.039-4.984A4,4,0,0,1,592.136,350.366Z" transform="translate(279.78 2085.253)" fill="#91ba83"/>
      <path id="Path_18875" data-name="Path 18875" d="M567.542,342.351s-3.633-2.235-6.6.1a7,7,0,0,0-2.545,5.938l-7.306,8.989,1.015,1.242,7.785-6.318a14.044,14.044,0,0,1-.451,8.8c-1.806,4.965-1.919,8.577,1.467,11.509s11.4,8.125,11.4,8.125,2.482.113,2.257-1.8-3.5-10.494-3.5-10.494l-3.52-26.082" transform="translate(263.91 2081.431)" fill="#91ba83"/>
      <path id="Path_18876" data-name="Path 18876" d="M574.574,348.322l-4.666,14s-1.47,4.02-2.278,7.393a2.778,2.778,0,0,1-4.34,1.575c-1.416-1.032-1.716-2.813-2.258-4.258-1.272-3.393-1.64-7.231-.155-12.745.981-3.64-.193-6.772.11-9.326a3.17,3.17,0,0,1,2.352-2.7l2.753-.719Z" transform="translate(267.665 2081.495)" fill="#f8b58e"/>
      <path id="Path_18877" data-name="Path 18877" d="M569.588,362.317l4.666-14-8.482-6.786-2.753.719a3.17,3.17,0,0,0-2.352,2.7,41.93,41.93,0,0,0,5.835,9.22Z" transform="translate(267.986 2081.495)" fill="#f49466"/>
      <path id="Path_18878" data-name="Path 18878" d="M622.533,209.567s6.286,2.913,5.236,8.27l-10.917,6.823-4.772,2.982-3.031-13.014,1.832-6.134Z" transform="translate(288.794 2025.218)" fill="#ef5952"/>
      <path id="Path_18880" data-name="Path 18880" d="M620.431,209.644s6.285,2.913,5.236,8.27c0,0-11.982-6.277-11.676-8.577h0Z" transform="translate(290.896 2025.147)" fill="#db4a43"/>
      <path id="Path_18881" data-name="Path 18881" d="M628.534,202.951a4.987,4.987,0,0,1,.891,2.673c-.178,1.069-2.495,3.3-3.742,3.654,0,0-1.247,2.851-3.564,3.564l-1.87,1.247-2.138-1.6,4.811-7.4Z" transform="translate(292.651 2022.876)" fill="#f49466"/>
      <path id="Path_18882" data-name="Path 18882" d="M596.024,173.278s15.156,5.527,17.294,12.48,8.558,23.712,8.558,23.712a78.69,78.69,0,0,1,.714,13.613c-.048,1.447-.144,2.95-.3,4.474a41.26,41.26,0,0,1-3.447,13.469s-.416-6.544-1.048-13.913c-.12-1.4-.248-2.834-.382-4.257-.627-6.648-1.393-13.087-2.156-15.3-1.783-5.171-18.7-26.793-18.7-26.793l-1.962-2.674Z" transform="translate(282.591 2010.293)" fill="#ef5952"/>
      <path id="Path_18883" data-name="Path 18883" d="M615.48,212.755c.154-1.524.25-3.027.3-4.474l-5.175-.227c.134,1.423.262,2.854.382,4.257Z" transform="translate(289.415 2025.04)" opacity="0.2"/>
      <path id="Path_18885" data-name="Path 18885" d="M598.979,192.729l2.013-5.127s7.874,2.93,8.973,1.464c.526-.7,3.071-4.635,5.762-8.782.374-.576,3.143,1.041,3.518.426,2.55-4.187-2.707-5.084,1.025-13.667,4.74-10.9-4.713-18.674-7.926-21.188-6.371-4.984-18.858-4.029-24.352,4.394a14.017,14.017,0,0,0,0,15.747,4.662,4.662,0,0,1,.366,5.309c-1.648,3.114-4.578,10.437-4.578,10.437Z" transform="translate(277.963 1997.457)" fill="#f8b58e"/>
      <path id="Path_18886" data-name="Path 18886" d="M626.2,233.769s7.027,26.1,4.685,45.51-6.692,42.163-6.692,42.163l-15.727,79.642s-12.716.67-18.4-4.016l6.357-60.232Z" transform="translate(280.714 2035.627)" fill="#042c60"/>
      <path id="Path_18887" data-name="Path 18887" d="M589.736,243.3c-5.725,12.752,5.02,47.184,5.02,47.184l3.346,31.79-37.145,66.592s5.832,12.309,16.206,12.977l28.3-50.792s12.046-8.366,13.385-16.4,13.385-70.942,13.385-70.942l6.358-29.448S597.1,226.9,589.736,243.3Z" transform="translate(268.109 2035.135)" fill="#073570"/>
      <path id="Path_18891" data-name="Path 18891" d="M612.686,220.8s6.484,13.32,7.926,21.111,6.638,10.967,2.02,24.532l-13.565-31.17Z" transform="translate(288.802 2030.407)" fill="#ef5952"/>
      <path id="Path_18892" data-name="Path 18892" d="M586.221,170.124,602.9,184.248l8.378,10.34s8.261,9.607,9.3,15.412-1.279,13.649-1.279,13.649Z" transform="translate(279.006 2008.965)" fill="#fff"/>
      <path id="Path_18893" data-name="Path 18893" d="M604.661,205.2l8.069-7.034a5.758,5.758,0,0,1,6.206,2.069l9.311,1.862,6.471.165a1.968,1.968,0,0,1,1.929,2.233c-.07.406-.279.706-.744.706a12.089,12.089,0,0,0-2.723.334,24.2,24.2,0,0,1-1.26,3.181c-.413.62-1.294,2.074-7.281,1.139l5.369.23s-.021,3.729-2.712,3.523-1.738-.13-1.738-.13.62,1.242-1.242,2.069-6.62-.827-9.931-.413l-3.31.413Z" transform="translate(286.927 2020.749)" fill="#f8b58e"/>
      <path id="Path_18894" data-name="Path 18894" d="M577.814,274.87l50.9,19.49-.7-39.9.334-20.412s-5.688-18.071-11.043-25.433c-4.99-6.86-18.7-33.194-28.125-41.079a2.011,2.011,0,0,0-3.064.636l-2.944,5.643a25.745,25.745,0,0,0-10.708,4.016l13.72,49.525-2.342,26.437Z" transform="translate(273.128 2007.64)" fill="#ff6d66"/>
      <path id="Path_18895" data-name="Path 18895" d="M627.335,233.108s-46.179,13.385-49.86,13.72-5.355-4.016-7.362-10.708-10.039-51.868,5.02-60.9l3.346-2.009s13.72,1.674,14.055,18.07-.67,33.464-.67,33.464L619.64,214.37S626.331,216.042,627.335,233.108Z" transform="translate(270.427 2010.261)" fill="#ff6d66"/>
      <path id="Path_18896" data-name="Path 18896" d="M591.2,167.9s-1.831,1.832-3.3.184-5.654-6.608-3.112-15.93c2.2-8.056,7.141-15.381,20.874-14.1,13.98,1.306,16.661,15.015,16.845,18.493,0,0-5.677,7.507-17.944,4.211,0,0-.366,6.592-4.029,6.592s-4.943-5.127-4.943-5.127Z" transform="translate(278.055 1995.366)"/>
      <path id="Path_18897" data-name="Path 18897" d="M595.866,142.848s-8.189-8.766,2.241-14.422c4.692-2.545,10.122.659,12.29,4.727,1.262,2.364.473,8.666-2.264,10.609C605.7,145.49,595.866,142.848,595.866,142.848Z" transform="translate(281.807 1990.943)"/>
      <path id="Path_18899" data-name="Path 18899" d="M580.391,171.74c.332,2.272,1.9,4.14,3.412,5.872a3.241,3.241,0,0,0,2.325,1.467l4.629.931" transform="translate(276.472 2009.664)" fill="none" stroke="#000" stroke-miterlimit="10" stroke-width="0.176"/>
      <path id="Path_18902" data-name="Path 18902" d="M623.251,214.756c-.977.522-41.213,11.758-42.311,11.907,0,0-.281,2.131-.281,3.1s20.807-2.294,20.807-2.294l21.334-9.676Z" transform="translate(276.801 2027.519)" opacity="0.2"/>
      <path id="Path_18903" data-name="Path 18903" d="M583.8,191.421a148.564,148.564,0,0,1,.291,17.722c-.532,6.92.271,7.848.271,7.848l9.134-3.59s-1.6-.532-3.9-4.258S583.8,191.421,583.8,191.421Z" transform="translate(277.933 2017.988)" opacity="0.2"/>
      <path id="Path_18906" data-name="Path 18906" d="M589.66,162.065s-4.139-5.463-.674-8.745,5.215-1.521,5.07,3.069A6.079,6.079,0,0,1,589.66,162.065Z" transform="translate(279.559 2001.205)" fill="#f8b58e"/>
      <path id="Path_18908" data-name="Path 18908" d="M598.337,176.929A31.535,31.535,0,0,1,590,167.9l6.618,13.4Z" transform="translate(280.59 2008.035)" fill="#f49466"/>
      <path id="Path_18917" data-name="Path 18917" d="M616.108,206.584a30.261,30.261,0,0,0,7.445.546,5.92,5.92,0,0,0,2.305-.459,2.307,2.307,0,0,0,1.366-1.8" transform="translate(291.799 2023.692)" fill="none" stroke="#f49466" stroke-miterlimit="10" stroke-width="1"/>
      <path id="Path_18918" data-name="Path 18918" d="M615.44,208.277a13.68,13.68,0,0,0,5.543,1.068" transform="translate(291.514 2025.135)" fill="none" stroke="#f49466" stroke-miterlimit="10" stroke-width="1"/>
    </g>
    <rect id="Rectangle_5307" data-name="Rectangle 5307" width="683" height="1" rx="0.5" transform="translate(960 2464)" fill="#383838"/>
    <g id="Group_8372" data-name="Group 8372" transform="translate(1409 2231.825)">
      <path id="Path_10046" data-name="Path 10046" d="M286.229,190.867c-.1.968-1.419,11.077-11.815,11.077-10.913,0-9.085-10.8-9.085-10.8l-.014-.067a10.879,10.879,0,0,1,3.424-.164v-5.116l12.387-6.93h.45V190.8A22.512,22.512,0,0,1,286.229,190.867Z" transform="translate(-115.948 -145.893)" fill="#f8b58e"/>
      <path id="Path_10047" data-name="Path 10047" d="M278.266,151.348a14.155,14.155,0,0,1,3.723,6.9c1.19,5.248.07,10.8-1.452,15.857a7.969,7.969,0,0,1-1.09,2.466,8.773,8.773,0,0,1-1.358,1.371q-3.306,2.878-6.605,5.763c-1.49,1.3-10.664,2.391-12.414,1.139-6.747-4.823-8.045-18.8-6.695-25.945C254.615,147.049,269.85,142.811,278.266,151.348Z" transform="translate(-114.002 -141.213)" fill="#f8b58e"/>
      <path id="Path_10048" data-name="Path 10048" d="M278.336,169.562c.09-1.141,1.263-2.39,2.44-1.65,1.219.767.932,2.793.427,3.908-.4.874-1.721,1.831-2.619,1.019-.752-.682.417-1.486.455-2.108.035-.56-1.085-.961-.627-1.561" transform="translate(-117.862 -144.26)" fill="#f49466"/>
      <path id="Path_10049" data-name="Path 10049" d="M278.585,175.043a3.484,3.484,0,0,0,3.84-2.281,13.118,13.118,0,0,0,.47-3.668,8.791,8.791,0,0,1,.3,4.045c-.318,2.495-1.193,4.871-3.151,4.9S278.585,175.043,278.585,175.043Z" transform="translate(-117.895 -144.465)" fill="#f49466"/>
      <path id="Path_10050" data-name="Path 10050" d="M271.9,169.051a.433.433,0,0,1-.138.041c-.762.107-1.066-.815-1.178-1.391a25.661,25.661,0,0,1-.27-4.071,3.066,3.066,0,0,0-.123-1.088c-.429-.98-1.568-1.616-1.916-2.628-.4-1.177.738-2.351.284-3.638-.694-1.973-3.228-2.427-5.06-2.405a57.535,57.535,0,0,0-8.144.963c-2.865.444-6.526.867-9.051-.945-3.042-2.183-4.313-7.874-2.042-10.99a7.372,7.372,0,0,1,5.641-2.649c2.179-.05,4.021,1.249,6.02,1.9,1.592.521,3.133-1,4.621-1.3,1.871-.374,2.666,1.668,4.321,1.725,1.608.055,3.185-1.2,4.749-1.487,3.117-.57,2.933,2.562,5.024,3.631,1.3.664,2.979.262,4.294.938,1,.513,1.139,1.415,1.357,2.437a24.025,24.025,0,0,0,.489,2.742,6.2,6.2,0,0,0,1.39,1.821,6.685,6.685,0,0,1,1.158,2.2,13.73,13.73,0,0,1,.576,5.6,38.053,38.053,0,0,1-2.342,9.209c-.682,1.925-.936,3.927-1.985,5.747-.282.489-1.534,1.919-2,.854a1.561,1.561,0,0,1-.067-.736c.138-1.983,1.985-14.76-2.855-13.225a3.43,3.43,0,0,0-2.077,2.132,8.3,8.3,0,0,0-.427,3.535c.009.174.013.349.006.523A.6.6,0,0,1,271.9,169.051Z" transform="translate(-112.717 -140.248)" fill="#383838"/>
      <path id="Path_10051" data-name="Path 10051" d="M269.286,190.7a16.665,16.665,0,0,0,9.135-5.232,10.03,10.03,0,0,1-9.466,7.714Z" transform="translate(-116.495 -146.858)" fill="#f49466"/>
      <g id="Group_8331" data-name="Group 8331" transform="translate(125 145.174)">
        <path id="Rectangle_2587" data-name="Rectangle 2587" d="M0,0H8A0,0,0,0,1,8,0V74a2,2,0,0,1-2,2H2a2,2,0,0,1-2-2V0A0,0,0,0,1,0,0Z" transform="translate(37)" fill="#073570"/>
        <path id="Rectangle_2588" data-name="Rectangle 2588" d="M0,0H43a0,0,0,0,1,0,0V0a6,6,0,0,1-6,6H6A6,6,0,0,1,0,0V0A0,0,0,0,1,0,0Z" transform="translate(20 1)" fill="#0fd7ad"/>
        <g id="Group_8330" data-name="Group 8330" transform="translate(0 61.999)">
          <path id="Rectangle_2589" data-name="Rectangle 2589" d="M0,0H8A0,0,0,0,1,8,0V17.374A1.626,1.626,0,0,1,6.374,19H1.626A1.626,1.626,0,0,1,0,17.374V0A0,0,0,0,1,0,0Z" transform="translate(37 6.001)" fill="#0a2033"/>
          <path id="Path_10052" data-name="Path 10052" d="M236.657,404.065a4.5,4.5,0,1,0,4.5-4.5A4.5,4.5,0,0,0,236.657,404.065Z" transform="translate(-236.657 -383.563)" fill="#0a2033"/>
          <path id="Path_10053" data-name="Path 10053" d="M321.617,404.065a4.5,4.5,0,1,0,4.5-4.5A4.5,4.5,0,0,0,321.617,404.065Z" transform="translate(-248.617 -383.563)" fill="#0a2033"/>
          <rect id="Rectangle_2590" data-name="Rectangle 2590" width="16" height="14" transform="translate(33)" fill="#0fd7ad"/>
          <path id="Rectangle_2591" data-name="Rectangle 2591" d="M6,0H76a6,6,0,0,1,6,6V6a0,0,0,0,1,0,0H0A0,0,0,0,1,0,6V6A6,6,0,0,1,6,0Z" transform="translate(0 11.001)" fill="#7595ec"/>
        </g>
      </g>
      <path id="Path_10054" data-name="Path 10054" d="M311.246,244.4a3.213,3.213,0,0,0-3.318,3.393c.541,9.384-1.448,32.275-10.188,40.086-10.687,9.549-40.976,8.248-40.976,8.248s-5,6.139,5,7.5,38.2.454,45.018-5.912c6.6-6.162,10.523-22.307,7.568-50.409a3.234,3.234,0,0,0-3.107-2.91Z" transform="translate(-114.531 -153.934)" fill="#7595ec"/>
      <path id="Path_10055" data-name="Path 10055" d="M252.433,379.9l3.6,8.212L245,392.958l-3.615-8.24Z" transform="translate(-112.465 -175.278)" fill="#f8b58e"/>
      <path id="Path_10056" data-name="Path 10056" d="M300.017,273c-.682,1.364-49.718.027-54.35.451,0,0-30.013,14.324-34.323,27.733a14.651,14.651,0,0,0-.423,5.266c1.2,18.881,22.7,64.09,22.7,64.09l3.3-1.446,11.05-4.816,1.569-.682s-17.053-50.816-13.642-53.544,42.058-9.549,55.468-13.178S300.017,273,300.017,273Z" transform="translate(-108.005 -159.653)" fill="#073570"/>
      <path id="Path_10057" data-name="Path 10057" d="M202.986,382.372l.862,12.338H191.8l-.862-12.365Z" transform="translate(-105.093 -175.635)" fill="#f8b58e"/>
      <path id="Path_10058" data-name="Path 10058" d="M241,273.031l-.437.191s-50.243,7.053-58.428,21.145c-5.32,9.167,4.978,76.153,4.978,76.153l17.775.041s-2.659-55.8-1.772-58.91c1-3.547,2.7-4.829,3.383-5.2a14.651,14.651,0,0,1,.424-5.266c4.31-13.41,34.323-27.733,34.323-27.733A.856.856,0,0,1,241,273.031Z" transform="translate(-103.582 -159.658)" fill="#052d60"/>
      <path id="Path_10059" data-name="Path 10059" d="M299.74,218.661l-3.37.464a164.689,164.689,0,0,1-2.824,18.171L251.57,253.229,251,256.272l-.518-.041c.014.628.014,1.241.041,1.814a30.2,30.2,0,0,0,.7,7.039.863.863,0,0,0,.246.424c1.14.93,15.986-.873,32.036,5.021,13.92,5.111,21.722,10.694,22.083,9.945C309.955,271.378,301.991,235.687,299.74,218.661Z" transform="translate(-113.795 -151.711)" fill="#ff6d66"/>
      <path id="Path_10060" data-name="Path 10060" d="M295.361,239.558c-1.119,5.375-4.01,16.07-9.686,17.5-7.407,1.883-21.731,1.787-35.155,1.064-.027-.573-.027-1.187-.041-1.814l.518.041.573-3.042,41.977-15.933A164.694,164.694,0,0,0,296.37,219.2a1.185,1.185,0,0,0,.014.15C296.466,220.76,297.039,231.619,295.361,239.558Z" transform="translate(-113.795 -151.789)" fill="#e5544a"/>
      <path id="Path_10061" data-name="Path 10061" d="M251.883,202.956c-.751,1.364-1.828,15.961-2.415,30.449l-8.58-8.008C244.53,218.344,251.883,202.956,251.883,202.956Z" transform="translate(-112.393 -149.416)" fill="#f4675d"/>
      <path id="Path_10062" data-name="Path 10062" d="M241.881,246.3c-7.244,1.255-13.9,2.333-13.9,2.333l-.014.354c-8.063-6.439-20.327-24.678-20.327-24.678s3.67-4.407,4.583-5.566c.137-.178,20.136,13.587,21.159,13.464.26-.026,1.282-1.828,2.647-4.5l8.58,8.008c-.137,3.451-.245,6.889-.313,10.15C243.49,246.011,242.685,246.147,241.881,246.3Z" transform="translate(-107.533 -151.723)" fill="#f8b58e"/>
      <path id="Path_10063" data-name="Path 10063" d="M227.694,253.31l-.178,5.975H205.69s2.169-8.526,8.076-8.526,8.186,3.124,8.186,3.124Z" transform="translate(-107.249 -156.403)" fill="#f8b58e"/>
      <path id="Path_10064" data-name="Path 10064" d="M209.683,217.529l.163.137c-.914,1.16-4.583,5.566-4.583,5.566l-2.278-1.61a5.663,5.663,0,0,1-5.43-.068c-3.042-1.65-1.16-5.592-1-6.059-.59.167-4.235,3.112-4.808,2.8s-1-1.351,3.082-5.375,9.6,1.146,9.768,1.146Z" transform="translate(-105.157 -150.647)" fill="#f8b58e"/>
      <path id="Path_10065" data-name="Path 10065" d="M199.126,222.117a1.665,1.665,0,0,0,.684,2.363,15.579,15.579,0,0,0,5.912,1.107c1.306-.126,2.346-1.954,2.346-1.954l-3.958-3.713h-3.164Z" transform="translate(-106.253 -151.895)" fill="#f8b58e"/>
      <path id="Path_10066" data-name="Path 10066" d="M198.745,222.913c.235-.809,2.482-.377,3.875-.345,1.026.025,1.588-.244,1.906-1.025s-1.173-2.028-1.466-1.637.537.941.562,1.459-1.466.691-2.614.691a27.949,27.949,0,0,0-3.129.3Z" transform="translate(-106.106 -151.881)" fill="#f49466"/>
      <path id="Path_10067" data-name="Path 10067" d="M288.6,248.265l-21.377-7.571c-1.555,2.906-3.22,5.088-4.87,5.524-2.5.655-8.526,1.787-14.61,2.852-.805.149-1.61.286-2.415.436-7.244,1.255-13.9,2.333-13.9,2.333l-.014.354v.232l-.164,5.389v1.367a151.068,151.068,0,0,1,16.412.27c12.809.914,29.33,1.46,34.8-1.119,2.564-1.214,4.611-5.2,6.22-10.109Z" transform="translate(-110.985 -154.93)" fill="#f8b58e"/>
      <path id="Path_10068" data-name="Path 10068" d="M273.257,240.694l21.377,7.571-.968,2.857-21.158-9.076Z" transform="translate(-117.015 -154.93)" fill="#e5544a"/>
      <path id="Path_10069" data-name="Path 10069" d="M270.05,233.712c-1.555,2.906-3.22,5.088-4.87,5.524-2.5.655-8.526,1.787-14.61,2.852.068-3.261.177-6.7.313-10.15.587-14.488,1.664-29.085,2.415-30.449,1.228-2.279,4.583-7.23,9.877-8.362l.014.067s-1.828,10.8,9.085,10.8c10.4,0,11.719-10.109,11.815-11.077,5.348.6,13.546,3.274,14.678,14.023.232,2.129.559,4.857.982,7.954l-3.369.464s-1.364,15.143-4.87,25.879l-.082.041Z" transform="translate(-113.808 -147.948)" fill="#ff6d66"/>
      <path id="Path_10070" data-name="Path 10070" d="M273.126,234.849l8.536-20.663-6.288,21.5Z" transform="translate(-117.105 -151.055)" fill="#ffa09b"/>
      <path id="Path_10071" data-name="Path 10071" d="M284.444,192.922h-4.653s-6.62,7.269-10.875,7.269-1.961-7.228-1.961-7.228h-2.076a11.736,11.736,0,0,0-11.658,10.4c-.077.679-.148,1.323-.208,1.9-.455,4.4,17.359,7.6,17.359,7.6l9.172-.513,5.57-10.867,1.11-4.45Z" transform="translate(-114.164 -147.948)" fill="#ff6d66"/>
      <g id="Group_8360" data-name="Group 8360" transform="translate(114.131 212.112)">
        <path id="Path_10072" data-name="Path 10072" d="M224.08,405.171c.415,2.223,1.955,3.8,4.178,3.388l29.628-5.526a1.38,1.38,0,0,0,1.1-1.61l-.49-2.629s-31.161,5.453-34.435,6.361Z" transform="translate(-224.065 -390.149)" fill="#f1f2f2"/>
        <path id="Path_10073" data-name="Path 10073" d="M232.9,396.231c.309-.268.606-.534.915-.8.594-.532,1.179-1.05,1.742-1.551.3-.266.594-.532.87-.781.541-.485,1.051-.939,1.508-1.346.329-.3.635-.577.911-.827l1.21-1.084a.67.67,0,0,1,.882-.018c1.218,1.024,5.155,3.365,12.285-1.047a.684.684,0,0,1,.97.253l4.312,8.286s-31.161,5.453-34.435,6.361C225.142,403,229.12,399.561,232.9,396.231Z" transform="translate(-224.065 -388.669)" fill="#ff6d66"/>
      </g>
      <g id="Group_8361" data-name="Group 8361" transform="translate(67.471 215.603)">
        <path id="Path_10074" data-name="Path 10074" d="M169.43,405.784c.055,2.26,1.324,4.065,3.584,4.01l30.131-.736a1.382,1.382,0,0,0,1.347-1.414l-.066-2.673s-31.632.418-35.008.793Z" transform="translate(-169.418 -394.544)" fill="#f1f2f2"/>
        <path id="Path_10075" data-name="Path 10075" d="M179.321,398.038c.348-.215.684-.43,1.031-.646.672-.43,1.331-.848,1.967-1.253.336-.215.671-.43.983-.633.611-.393,1.188-.76,1.7-1.089l1.031-.67,1.368-.878a.669.669,0,0,1,.873.122c1.04,1.2,4.554,4.144,12.3.924a.685.685,0,0,1,.918.4l2.936,8.869s-31.632.418-35.008.793C170.587,403.489,175.063,400.724,179.321,398.038Z" transform="translate(-169.418 -392.759)" fill="#ff6d66"/>
      </g>
      <g id="Group_8343" data-name="Group 8343" transform="translate(29.957 61.334)">
        <path id="Path_10076" data-name="Path 10076" d="M141.574,255l-16.092-42.917h45.812L187.386,255Z" transform="translate(-125.483 -212.083)" fill="#91ba83"/>
        <path id="Path_10077" data-name="Path 10077" d="M198.06,255h-2.832l-16.092-42.917,2.572.114,14.884,38.846Z" transform="translate(-133.325 -212.083)" fill="#729b64"/>
        <path id="Path_10078" data-name="Path 10078" d="M128.369,256.914h57.678" transform="translate(-125.904 -218.635)" fill="none"/>
        <g id="Group_8342" data-name="Group 8342" transform="translate(63.228 40.211)" style="isolation: isolate">
          <path id="Path_10079" data-name="Path 10079" d="M200.153,261.883h30.271l-.082-2.706H199.534" transform="translate(-199.534 -259.177)" fill="#729b64"/>
        </g>
      </g>
      <g id="Group_8348" data-name="Group 8348" transform="translate(0 104.174)">
        <g id="Group_8344" data-name="Group 8344" transform="translate(216 8.999)">
          <rect id="Rectangle_2593" data-name="Rectangle 2593" width="7" height="119" fill="#383838"/>
        </g>
        <g id="Group_8345" data-name="Group 8345" transform="translate(177 8.999)">
          <rect id="Rectangle_2594" data-name="Rectangle 2594" width="7" height="119" transform="translate(0)" fill="#383838"/>
        </g>
        <g id="Group_8346" data-name="Group 8346" transform="translate(51 8.999)">
          <rect id="Rectangle_2595" data-name="Rectangle 2595" width="7" height="119" transform="translate(0)" fill="#383838"/>
        </g>
        <g id="Group_8347" data-name="Group 8347" transform="translate(11 8.999)">
          <rect id="Rectangle_2596" data-name="Rectangle 2596" width="7" height="119" transform="translate(0)" fill="#383838"/>
        </g>
        <rect id="Rectangle_2597" data-name="Rectangle 2597" width="234" height="9" rx="4" fill="#fad8b0"/>
      </g>
      <path id="Path_10080" data-name="Path 10080" d="M134.441,217.366l.784,2.09h9.126l-.784-2.09Z" transform="translate(-96.835 -151.52)" fill="#729b64"/>
      <path id="Path_10081" data-name="Path 10081" d="M240.775,229.238l-.655,1.266,9.236,9.545v-2.8Z" transform="translate(-112.28 -153.256)" fill="#e5544a"/>
    </g>
    <g id="Group_19118" data-name="Group 19118" transform="translate(7 -800)">
      <g id="Group_19109" data-name="Group 19109">
        <path id="Path_18808" data-name="Path 18808" d="M187.137,166.281c0,12.7,0,73.36,57.059,83.246,0,0,.938,6.4,2.743,16.415,2.183,12.147,5.653,29.609,10.257,47.362a.333.333,0,0,0,.028.126c1.594,6.112,3.316,12.247,5.177,18.22a.519.519,0,0,0,.028.139c.182.568.35,1.123.532,1.679a310.875,310.875,0,0,1,8.885,34.7c17.532,90.722-19.827,137.1-19.827,137.1h78.525S350,420.365,308.7,335.187c-7.64-15.77,22.737-28.587,36.03-57.919,11.263-24.849,10.942-147.1,5.471-154.978s-14.188-5.921-14.188,4.925,0,112.364-7.654,132.073-40.3,43.373-40.3,43.373-16.777-27.463-26.179-87.6v-.025c-4.407-28.271-7.193-63.751-5.835-107.009-.015-.012-.015-.025,0-.025q.42-13.712,1.44-28.486c.784-11.287-10.941-6.337-14.846,3.536s-9.388,67.008-1.566,143.9c0,0-39.094-5.506-39.094-67.021C201.983,148.642,187.137,153.58,187.137,166.281Z" transform="translate(1015.73 2759.735)" fill="#383838"/>
        <path id="Path_18810" data-name="Path 18810" d="M265.911,270.39c4.506,15.367,10.676,30.329,15.154,45.733a313.24,313.24,0,0,1,10.1,47.312,243.02,243.02,0,0,1,1.539,46.427c-.686,10.619-3.121,21-4.967,31.44h7.15c8.493-24.318,7.345-51.73,2.98-76.276-2.882-16.161-7.43-31.819-12.579-47.488-5.247-15.947-10.3-32.235-17-47.74C267.716,268.5,265.505,268.976,265.911,270.39Z" transform="translate(1041.42 2823.698)"/>
        <path id="Path_18811" data-name="Path 18811" d="M242.451,201.131c3.142,32.41,17.49,63.885,27.772,94.832A255.019,255.019,0,0,1,282.568,392.6c-.046.775-1.33.787-1.345,0-.322-17.705-.625-35.529-4.276-52.987-3.3-15.769-8.506-31.251-13.745-46.568-5.138-15.026-10.843-29.937-15.075-45.2a209.983,209.983,0,0,1-7.186-46.711C240.9,200.246,242.367,200.27,242.451,201.131Z" transform="translate(1033.288 2801.324)"/>
        <path id="Path_18812" data-name="Path 18812" d="M242.194,432.009H250.1c2.2-4.431,4.169-8.926,6.044-13.27A189.4,189.4,0,0,0,268.5,378.612c5.108-27.045,3.933-53.864-2.2-80.671-.182-.757-1.4-.417-1.273.316,4.659,26.617,3.273,54.66-2.869,80.986a225.377,225.377,0,0,1-12.425,37.9A163.762,163.762,0,0,1,242.194,432.009Z" transform="translate(1033.697 2832.991)"/>
        <path id="Path_18813" data-name="Path 18813" d="M264.852,378.135c1.812-5.962,2.918-13.3,5.986-18.847a7.025,7.025,0,0,1,5.614-3.785,1.388,1.388,0,0,1,.55-.072,6.76,6.76,0,0,1,.812.106,7.662,7.662,0,0,1,1.482.337c.966.33,2.057.987,2.227,2.009.008.05.015.107.024.158,3.492,4.972,2.2,15.619,1.715,19.525-.749,6.1-2.58,22.091-13.189,20.66C259.772,396.835,263.093,383.925,264.852,378.135Z" transform="translate(1040.458 2851.891)"/>
        <path id="Path_18814" data-name="Path 18814" d="M232.225,218.479c2.183,12.147,5.653,29.609,10.257,47.362a.333.333,0,0,0,.028.126c.588,2.02,1.19,4.04,1.791,6.061,1.218,4.052,2.365,8.105,3.386,12.159a.52.52,0,0,0,.028.139c.182.568.35,1.123.532,1.679a310.877,310.877,0,0,1,8.885,34.7c1.805-15.228-1.1-30.353-5.583-45.517C245.881,255.992,239.5,237.167,232.225,218.479Z" transform="translate(1030.444 2807.199)"/>
        <path id="Path_18815" data-name="Path 18815" d="M304.567,190a6.447,6.447,0,0,1,.752-3.214,2.606,2.606,0,0,1,2.533-1.1,2.551,2.551,0,0,1,2.113,1.643c.046.109.072.22.11.33a1.8,1.8,0,0,1,.353.745,4.867,4.867,0,0,1,.057,1.474c.72,1.163.121,2.748-.913,3.746a2.916,2.916,0,0,1-4.244-.493A4,4,0,0,1,304.567,190Z" transform="translate(1054.032 2796.493)"/>
        <path id="Path_18816" data-name="Path 18816" d="M271.1,266.2c18.5-19.761,40.274-42.939,40.2-70.312,0-.686,1.058-.641,1.147,0,4.2,30.081-17.13,52.4-39.774,71.735C271.62,268.531,270.183,267.183,271.1,266.2Z" transform="translate(1043.035 2799.666)"/>
        <path id="Path_18817" data-name="Path 18817" d="M273.161,265.589c.913-4.919,5.178-9.136,8.775-12.733,4.845-4.842,10.1-9.263,14.221-14.664.545-.715,1.779-.09,1.3.687A86.2,86.2,0,0,1,286.707,252.3c-4.2,4.523-7.624,9.778-12.039,14.079A.9.9,0,0,1,273.161,265.589Z" transform="translate(1043.798 2813.529)"/>
        <path id="Path_18818" data-name="Path 18818" d="M307.989,123.452c0-.55.842-.511.918,0,3.552,24.025,4.132,49.687-.768,73.632-.158.767-1.481.57-1.481-.182C306.662,172.45,307.961,147.934,307.989,123.452Z" transform="translate(1054.734 2776.058)"/>
        <path id="Path_18819" data-name="Path 18819" d="M304.577,151.428c.023-.186.326-.195.328,0,.137,15.864.153,33.047-3.742,48.583a.94.94,0,0,1-1.8-.22C299.492,183.8,302.634,167.328,304.577,151.428Z" transform="translate(1052.352 2785.271)"/>
        <path id="Path_18820" data-name="Path 18820" d="M197.738,170.469c4.036,10.531,8.447,19.987,17.858,27.621a69.289,69.289,0,0,0,14.191,8.971c4.933,2.313,10.461,3.37,15.294,5.788.716.358.305,1.2-.381,1.269-11.564,1.243-24.776-7.229-32.287-14.424-8.137-7.8-15.423-18.09-16.221-29.038C196.131,169.82,197.461,169.748,197.738,170.469Z" transform="translate(1018.684 2791.37)"/>
        <path id="Path_18821" data-name="Path 18821" d="M196.151,152.441c2.338,19.638,13.876,36.233,28.937,49.983.42.385-.131,1.082-.657.768-18.769-11.242-27.961-31.024-28.641-50.751C195.783,152.227,196.127,152.236,196.151,152.441Z" transform="translate(1018.553 2785.597)"/>
        <path id="Path_18822" data-name="Path 18822" d="M229.735,120.126c.074-.727,1.294-.755,1.28,0-.871,43.65,8.538,86.549,12.209,129.92.061.724-1.273.9-1.418.172-4.242-21.285-7.51-42.875-10.152-64.373C228.97,164,227.506,142.054,229.735,120.126Z" transform="translate(1029.275 2774.921)"/>
        <path id="Path_18823" data-name="Path 18823" d="M234.018,152.068A173.671,173.671,0,0,0,246.7,206.424c-4.407-28.271-7.193-63.751-5.835-107.009a149.988,149.988,0,0,0-4.939,18.423A135.056,135.056,0,0,0,234.018,152.068Z" transform="translate(1030.917 2768.344)"/>
        <path id="Path_18824" data-name="Path 18824" d="M229.974,104.745c.651-3.887,2.49-7.453,3.313-11.3.172-.806,1.686-.833,1.834,0,.6,3.358-.57,6.169-1.536,9.405-1.357,4.545-1.631,9.189-2.281,13.835a.778.778,0,0,1-1.541,0A46.456,46.456,0,0,1,229.974,104.745Z" transform="translate(1029.548 2766.193)"/>
        <path id="Path_18825" data-name="Path 18825" d="M269.35,262.167c10.871,16.866,17.581,35.075,21.687,54.144.165.764-1.02,1.069-1.3.322-6.75-18.135-14.443-36-21.558-54.022C267.933,261.985,268.992,261.611,269.35,262.167Z" transform="translate(1042.166 2821.367)"/>
        <path id="Path_18826" data-name="Path 18826" d="M254.709,273.671c3.5,6.515,7.442,16.087,5.856,23.415a.208.208,0,0,1-.361.042c-1.9-3.256-2.391-7.061-3.34-10.615-1.1-4.124-2.509-8.174-3.593-12.3A.791.791,0,0,1,254.709,273.671Z" transform="translate(1037.305 2825.093)"/>
        <path id="Path_18827" data-name="Path 18827" d="M272.5,421.923a47.413,47.413,0,0,0,9.631-21.46c1.813-9.32,3.779-19.337,1.894-28.758-1.545-7.721-4.516-15.022-5.662-22.848a108.824,108.824,0,0,1-.366-28.059c.066-.594,1.073-.619,1.049,0a107.281,107.281,0,0,0,3.458,32.259c2.364,8.737,6.169,17.173,6.118,26.283-.076,13.9-2.415,33.79-14.73,43.55C273.183,423.452,271.875,422.7,272.5,421.923Z" transform="translate(1043.533 2840.441)"/>
        <path id="Path_18828" data-name="Path 18828" d="M260.423,404.941h4.659a16.306,16.306,0,0,0-.617-6.97c-1.553-5.417-4.645-11.389-3.722-17.108.057-.316-.462-.593-.629-.24C256.267,388.654,259.36,396.772,260.423,404.941Z" transform="translate(1038.933 2860.059)"/>
        <path id="Path_18829" data-name="Path 18829" d="M260.95,376.875c.011-.016.038,0,.028.016a3.639,3.639,0,0,0-.582,2.257c0,.02-.031.02-.032,0A3.633,3.633,0,0,1,260.95,376.875Z" transform="translate(1039.623 2858.888)"/>
      </g>
      <g id="Group_19057" data-name="Group 19057" transform="translate(1445.992 3006.324)">
        <g id="Group_19056" data-name="Group 19056" transform="translate(-0.992 -0.324)">
          <circle id="Ellipse_737" data-name="Ellipse 737" cx="29" cy="29" r="29" fill="#7595ec"/>
        </g>
        <path id="Path_18830" data-name="Path 18830" d="M400.427,245.123c-.692-7.082-5.482-14.131-13.9-14.131s-13.2,7.049-13.89,14.131c-1.065,10.933,6.173,20.835,13.89,29.869C394.254,265.958,401.492,256.056,400.427,245.123Zm-13.9,7.864a7.756,7.756,0,1,1,7.621-7.755A7.682,7.682,0,0,1,386.526,252.987Z" transform="translate(-358.523 -224.316)" fill="#fff"/>
      </g>
      <g id="Group_19110" data-name="Group 19110">
        <circle id="Ellipse_738" data-name="Ellipse 738" cx="60" cy="60" r="60" transform="translate(1219 2775)" fill="#7595ec"/>
        <path id="Path_18831" data-name="Path 18831" d="M248,65.081c-.117,3.277-.039,6.593-.039,10.143H260.8c-.547,4.214-1.017,8.115-1.644,11.977-.039.389-1.017.858-1.565.9-3.091.078-6.183.039-9.548.039v42.678a50.683,50.683,0,0,1-13.619-2.107V88.215H223.187V75.341h11c.039-.975.117-1.756.117-2.5.078-3.394-.039-6.788.274-10.143.7-7.373,5.244-12.562,12.561-13.576,4.54-.625,9.275-.117,14.05-.117v11.7c-1.683,0-3.4-.039-5.087,0a21.642,21.642,0,0,0-4.5.312A4.218,4.218,0,0,0,248,65.081Z" transform="translate(1034.813 2746.186)" fill="#fff"/>
      </g>
      <g id="Group_19060" data-name="Group 19060" transform="translate(1083.843 2943.322)">
        <circle id="Ellipse_739" data-name="Ellipse 739" cx="62" cy="62" r="62" transform="translate(-0.843 -0.322)" fill="#91ba83"/>
        <path id="Path_18832" data-name="Path 18832" d="M134.643,243.145c8.4.158,15.943-1.881,22.753-7.008-9.412-2.856-13.164-5.727-14.534-11.074l6.314-.311c-7.428-2.85-11.793-7.837-12.364-15.98l6.5,1.718c-6.815-8.567-8.194-15.211-4.124-21.413,8.807,10.048,19.767,15.753,33.378,16.679-.061-1.063-.121-1.861-.152-2.661-.27-7.022,2.679-12.331,8.941-15.425,6.245-3.085,12.317-2.257,17.734,2.139a3.261,3.261,0,0,0,3.579.733c2.534-.951,5.083-1.868,7.878-2.891a16.169,16.169,0,0,1-6.2,7.939c.06.153.12.3.178.457q3.9-1,7.8-2l.312.31c-2.017,2.029-3.949,4.151-6.081,6.047a4.157,4.157,0,0,0-1.7,3.477A45.641,45.641,0,0,1,163.3,249.613a46.389,46.389,0,0,1-27.1-5.528C135.669,243.795,135.162,243.46,134.643,243.145Z" transform="translate(-111.486 -156.147)" fill="#fff"/>
      </g>
      <g id="Group_19062" data-name="Group 19062" transform="translate(1257.094 3041.494)">
        <circle id="Ellipse_740" data-name="Ellipse 740" cx="44" cy="44" r="44" transform="translate(-0.094 -0.494)" fill="#17a9fe"/>
        <g id="_2dqxSk.tif" data-name="2dqxSk.tif" transform="translate(20.906 20.506)">
          <g id="Group_19061" data-name="Group 19061">
            <path id="Path_18833" data-name="Path 18833" d="M247.959,239.551a.949.949,0,0,0,.184.056,5.51,5.51,0,0,1,5.067,4.673,5.461,5.461,0,0,1-1.873,5.138,5.356,5.356,0,0,1-2.633,1.252,5.583,5.583,0,0,1-6.36-3.886,5.02,5.02,0,0,1-.2-1.163c0-.077.012-.167-.092-.2v-.483c.1-.037.084-.125.092-.2.016-.159.024-.32.049-.479a5.485,5.485,0,0,1,5.1-4.649.883.883,0,0,0,.187-.054Z" transform="translate(-242.05 -239.551)" fill="#fff"/>
            <path id="Path_18834" data-name="Path 18834" d="M263.774,255.436c.046-.062.1-.122.141-.187a10.932,10.932,0,0,1,1.625-1.907,10.092,10.092,0,0,1,4.5-2.414,13.718,13.718,0,0,1,2.5-.34,14.272,14.272,0,0,1,6.45,1.2,8.232,8.232,0,0,1,3.553,3.386,12.676,12.676,0,0,1,1.178,2.979,16.034,16.034,0,0,1,.434,2.162c.048.365.069.733.093,1.1.042.682.076,1.363.114,2.044l0,.061c.017.649.044,1.3.049,1.947q.022,3.265.031,6.531.008,4.932,0,9.868c0,.366-.016.382-.387.383q-2.091,0-4.181,0c-1.3,0-2.6,0-3.9.007-.207,0-.415.017-.622.027-.033,0-.066,0-.1,0-.462-.024-.467-.131-.467-.475q0-4.09.005-8.181c0-2.706,0-5.413-.011-8.119a10.441,10.441,0,0,0-.4-3.035,5.968,5.968,0,0,0-.743-1.641,3.822,3.822,0,0,0-2.45-1.619,4.957,4.957,0,0,0-1.154-.122c-.414.009-.832,0-1.241.046a4.589,4.589,0,0,0-3.915,2.83,8.612,8.612,0,0,0-.619,2.3,18.111,18.111,0,0,0-.156,2.543V281.68c0,.114,0,.228-.005.341-.013.154-.08.212-.232.223-.086.005-.174,0-.261,0q-2.372,0-4.742,0-1.5,0-2.995.007c-.294,0-.589.017-.882.027a.915.915,0,0,1-.121,0c-.39-.04-.422-.141-.418-.428,0-.147,0-.3,0-.443q0-9.8,0-19.6,0-4.944,0-9.888c0-.087,0-.174,0-.261.009-.217.088-.3.309-.309.053,0,.107,0,.161,0h8.32c.053,0,.107,0,.16,0,.212.013.293.084.3.3,0,.374-.016.749-.016,1.123,0,.549.007,1.1.011,1.647,0,.261.005.523.008.784,0,.07.005.142.008.212Z" transform="translate(-238.448 -236.283)" fill="#fff"/>
            <path id="Path_18835" data-name="Path 18835" d="M242.672,266.592V251.6a1.906,1.906,0,0,1,.012-.261.177.177,0,0,1,.187-.171c.074,0,.147-.007.222-.007l8.782,0h.061c.337,0,.423.088.424.434q0,1.7,0,3.4v26.528a1.966,1.966,0,0,1-.023.318.236.236,0,0,1-.228.217c-.227.012-.454.019-.679.023-.088,0-.174-.016-.26-.016q-3.689,0-7.376,0c-.194,0-.387.017-.581.026a.724.724,0,0,1-.121,0c-.325-.037-.423-.073-.423-.442q0-7.528,0-15.054Z" transform="translate(-241.848 -236.09)" fill="#fff"/>
          </g>
        </g>
      </g>
      <g id="Group_19065" data-name="Group 19065" transform="translate(1367.09 2882.274)">
        <g id="Group_19111" data-name="Group 19111">
          <circle id="Ellipse_741" data-name="Ellipse 741" cx="61" cy="61" r="61" transform="translate(-0.09 -0.274)" fill="#0fd7ad"/>
          <path id="Union_350" data-name="Union 350" d="M-4405.517,4920.613c-10.178-.1-16.448-6.644-16.535-16.877-.053-6.7-.009-13.417-.009-20.121,0-6.85-.078-13.707.016-20.56.149-9.69,6.471-16.12,16.227-16.223q20.687-.219,41.386,0c9.971.095,16.25,6.566,16.293,16.575q.091,20.332-.007,40.673c-.053,9.888-6.444,16.421-16.424,16.532q-10.066.114-20.137.113Q-4395.112,4920.726-4405.517,4920.613Zm-.052-67.394c-6.3.043-9.824,3.649-9.85,9.924q-.091,20.547,0,41.1c.035,6.3,3.494,9.8,9.885,9.83q20.473.128,40.938,0c6.365-.043,9.79-3.547,9.86-9.874.077-6.85.016-13.7.016-20.542s.061-13.7-.016-20.549c-.07-6.258-3.582-9.845-9.895-9.889q-10.235-.07-20.469-.07T-4405.568,4853.219Zm20.019,49.5a18.858,18.858,0,0,1-18.539-19.21,19.016,19.016,0,0,1,19.034-18.787A19.009,19.009,0,0,1-4366.091,4884a18.868,18.868,0,0,1-19.074,18.722C-4385.292,4902.726-4385.422,4902.725-4385.55,4902.723Zm-12.257-18.854a12.858,12.858,0,0,0,12.511,12.509,12.87,12.87,0,0,0,12.931-12.517,12.66,12.66,0,0,0-12.726-12.611A12.636,12.636,0,0,0-4397.807,4883.869Zm33.534-16.149c-2.645-.123-3.994-1.731-3.8-4.312.181-2.422,1.771-3.542,4.211-3.68,2.481.417,3.948,1.816,3.753,4.412a3.567,3.567,0,0,1-3.866,3.587C-4364.072,4867.726-4364.171,4867.724-4364.273,4867.719Z" transform="translate(4446 -4823)" fill="#fff"/>
        </g>
      </g>
      <g id="Group_19067" data-name="Group 19067" transform="translate(1354.933 3006.325)">
        <circle id="Ellipse_742" data-name="Ellipse 742" cx="42" cy="42" r="42" transform="translate(-0.933 -0.325)" fill="#073570"/>
        <path id="Path_18921" data-name="Path 18921" d="M129.636,121.1a10.063,10.063,0,0,0-10.094-10.031H93.73A10.063,10.063,0,0,0,83.636,121.1V133.04A10.063,10.063,0,0,0,93.73,143.071h25.812a10.063,10.063,0,0,0,10.094-10.031Zm-15.18,6.863-11.575,5.691c-.454.243-2-.083-2-.594V121.38c0-.52,1.555-.846,2.01-.589l11.077,5.991C114.439,127.045,114.928,127.714,114.456,127.965Z" transform="translate(-65.569 -85.395)" fill="#fff"/>
      </g>
      <g id="Group_19068" data-name="Group 19068" transform="translate(1192.28 3041.494)">
        <circle id="Ellipse_743" data-name="Ellipse 743" cx="30" cy="30" r="30" transform="translate(-0.28 -0.494)" fill="#ff6d66"/>
        <path id="Path_18840" data-name="Path 18840" d="M223.707,273.875c-5.029,10.114-16.99,16.118-16.99,16.118s-11.961-6-16.981-16.118c-4.188-8.438-1.534-17.557,5.076-19.549,9.474-2.858,11.905,13.6,11.905,13.6s2.431-16.458,11.914-13.6C225.241,256.317,227.895,265.436,223.707,273.875Z" transform="translate(-177.001 -240.486)" fill="#fff"/>
      </g>
      <g id="Group_19072" data-name="Group 19072" transform="translate(1232.301 2903.231)">
        <circle id="Ellipse_745" data-name="Ellipse 745" cx="60" cy="60" r="60" transform="translate(-0.301 -0.231)" fill="#f9865f"/>
        <path id="Union_349" data-name="Union 349" d="M-4282.376,4888.058a6.443,6.443,0,0,0-.474-5.118c-11.939-24.248,3.9-53.555,30.658-56.849,24.6-3.029,45.408,15.661,44.881,40.308-.432,20.2-17.447,37.612-37.571,38.521a42.293,42.293,0,0,1-19.681-3.748,6.244,6.244,0,0,0-3.773-.289c-6.165,1.483-12.288,3.146-18.965,4.886C-4285.589,4899.557-4284.069,4893.784-4282.376,4888.058Zm18.793,6.065a35.12,35.12,0,0,0,16,4.195c20.434.362,36.893-18.759,33-38.812-2.692-13.866-11.154-22.963-24.814-26.113-14.017-3.235-25.941,1.314-34.42,12.98-8.29,11.405-8.509,23.7-1.74,36.131a6.207,6.207,0,0,1,.5,3.911c-.653,3.209-1.647,6.345-2.623,9.946,3.922-1.021,7.233-1.993,10.6-2.695a5.142,5.142,0,0,1,1.041-.1A5.429,5.429,0,0,1-4263.583,4894.123Zm23.473-10.155c-10.615-2.714-18.217-9.445-24.091-18.446-1.79-2.741-3.129-5.653-3.021-9.045a13.5,13.5,0,0,1,2.67-7.119c2.7-3.658,6.314-2.935,8.2,1.106.738,1.579.913,2.11,1.639,3.915,1.089,2.718.845,4.547-1.1,6.305-1.417,1.277-1.284,2.4-.3,3.873a27.871,27.871,0,0,0,12.035,10.241,2.638,2.638,0,0,0,3.646-.815c3.484-4.195,3.535-4.152,8.456-1.816.567.267,1.131.542,1.7.813,3.78,1.828,4.351,5.252,1.273,8.268a10.536,10.536,0,0,1-7.618,3.184A14.1,14.1,0,0,1-4240.111,4883.968Z" transform="translate(4307 -4806)" fill="#fff"/>
      </g>
      <g id="Group_19075" data-name="Group 19075" transform="translate(1054.784 2897.743)">
        <g id="Group_19073" data-name="Group 19073" transform="translate(-0.784 -0.743)">
          <circle id="Ellipse_746" data-name="Ellipse 746" cx="29" cy="29" r="29" fill="#7595ec"/>
        </g>
        <path id="Union_351" data-name="Union 351" d="M-4118.742,4881.324c.026-2.622,0-5.243-.011-7.868s0-5.244-.03-7.866c-.006-.533.042-.8.616-.791q4.224.045,8.44-.028c.552-.007.638.208.637.765q0,7.914.05,15.83c0,.671-.155.862-.748.853-2.729-.025-5.459-.021-8.187.038h-.05C-4118.658,4882.256-4118.748,4881.983-4118.742,4881.324Zm12.863.531c-.86-.518-1.611-1.273-2.759-1.163-.44.044-.347-.309-.349-.542q-.031-6.272-.053-12.536c0-.305.018-.555.359-.723,3.3-1.619,4.718-4.791,6.732-7.5a12.187,12.187,0,0,0,2.363-9.491c-.144-.939.309-1.362,1.187-1.559a2.211,2.211,0,0,1,2.47.743,16.429,16.429,0,0,1,1.9,5.47c.2,1.585-.387,3.13-.585,4.7-.147,1.149-.42,2.283-.641,3.446a1,1,0,0,0,.688.11c.085-.007.168-.013.251-.012q5.48-.008,10.957-.032c1.539-.006,2.3.419,2.513,1.407a2.807,2.807,0,0,1-1.58,3.066c-.274.133-.767.016-.8.429s.477.377.73.545c1.324.873,1.085,2.682-.441,3.732-.368.251-1.082.137-1.1.659-.007.416.662.41.965.7,1.07,1.017.546,2.92-1.045,3.695a4.785,4.785,0,0,0-.641.242c-.183.118-.359.25-.007.49,1.587,1.087,1.557,2.607-.031,3.722-.156.109-.315.222-.475.331a3.165,3.165,0,0,1-1.923.413q-8.591.044-17.184.059h-.048A2.025,2.025,0,0,1-4105.879,4881.855Z" transform="translate(4128 -4837)" fill="#fff"/>
      </g>
      <g id="Group_19113" data-name="Group 19113">
        <circle id="Ellipse_748" data-name="Ellipse 748" cx="15" cy="15" r="15" transform="translate(1339 2882)" fill="#91ba83"/>
        <path id="Path_18928" data-name="Path 18928" d="M133.275,162.564c-.015.052-.029.1-.041.139-.663,2.59-.738,3.166-1.42,4.368a13.339,13.339,0,0,1-1.1,1.632c-.046.059-.089.135-.18.117s-.107-.112-.118-.191a13.989,13.989,0,0,1-.144-2.372c.035-1.035.163-1.391,1.5-7a.382.382,0,0,0-.032-.233,3.937,3.937,0,0,1-.1-2.623c.607-1.914,2.787-2.06,3.168-.481.234.977-.386,2.255-.863,4.144-.4,1.559,1.448,2.668,3.024,1.53,1.453-1.049,2.016-3.564,1.909-5.347-.212-3.554-4.126-4.322-6.609-3.178-2.848,1.311-3.495,4.824-2.209,6.43.163.2.288.329.234.537-.083.321-.156.645-.245.965a.344.344,0,0,1-.508.227,2.919,2.919,0,0,1-1.189-.888,5.589,5.589,0,0,1,.04-6.262,7.571,7.571,0,0,1,7.289-3.2,6.163,6.163,0,0,1,5.678,5.077,8.424,8.424,0,0,1-1.559,5.94c-1.849,2.283-4.848,2.434-6.231,1.033C133.466,162.819,133.38,162.692,133.275,162.564Z" transform="translate(1219.578 2737.177)" fill="#fff" fill-rule="evenodd"/>
      </g>
      <g id="Group_19084" data-name="Group 19084" transform="translate(1113.128 2841.626)">
        <path id="Path_18854" data-name="Path 18854" d="M136.5,136.621a45.917,45.917,0,0,0,76.763,29.09l22.984,3.377-11.5-19.891A45.961,45.961,0,1,0,136.5,136.621Z" transform="translate(-136.377 -85.461)" fill="#17a9fe"/>
        <path id="Union_352" data-name="Union 352" d="M-4128.128,4893.374a6,6,0,0,1,6-6,6,6,0,0,1,6,6,6,6,0,0,1-6,6A6,6,0,0,1-4128.128,4893.374Zm-20,0a6,6,0,0,1,6-6,6,6,0,0,1,6,6,6,6,0,0,1-6,6A6,6,0,0,1-4148.128,4893.374Zm-20,0a6,6,0,0,1,6-6,6,6,0,0,1,6,6,6,6,0,0,1-6,6A6,6,0,0,1-4168.129,4893.374Z" transform="translate(4188 -4847)" fill="#fff" stroke="rgba(0,0,0,0)" stroke-miterlimit="10" stroke-width="1"/>
      </g>
      <g id="Group_19116" data-name="Group 19116">
        <path id="Path_18860" data-name="Path 18860" d="M425.769,120.9a29.9,29.9,0,0,1-6.027,15.084,33.044,33.044,0,0,1-2.706,3.1,33.529,33.529,0,0,1-3.152,2.659,29.432,29.432,0,0,1-7.2,4,29.072,29.072,0,0,1-12.187,1.989,26.333,26.333,0,0,1-4.132-.429,30.158,30.158,0,0,1-14.772-7.268l.353.109-14.924,2.283-1.084.166.549-.951,7.43-12.9-.035.51a29.991,29.991,0,0,1,1.839-26.52,30.456,30.456,0,0,1,9.353-9.923,30.468,30.468,0,0,1,26.246-3.522,30.526,30.526,0,0,1,11.516,7.037A29.871,29.871,0,0,1,425.769,120.9Z" transform="translate(1080.065 2732.219)" fill="#17a9fe"/>
        <path id="Union_357" data-name="Union 357" d="M-3027,7733a4,4,0,0,1,4-4,4,4,0,0,1,4,4,4,4,0,0,1-4,4A4,4,0,0,1-3027,7733Zm-14,0a4,4,0,0,1,4-4,4,4,0,0,1,4,4,4,4,0,0,1-4,4A4,4,0,0,1-3041,7733Zm-14,0a4,4,0,0,1,4-4,4,4,0,0,1,4,4,4,4,0,0,1-4,4A4,4,0,0,1-3055,7733Z" transform="translate(4513 -4883)" fill="#fff"/>
      </g>
      <g id="Group_19093" data-name="Group 19093" transform="translate(1155.552 2781.913)">
        <circle id="Ellipse_750" data-name="Ellipse 750" cx="30" cy="30" r="30" transform="translate(-0.552 -0.913)" fill="#f9865f"/>
        <g id="Group_19112" data-name="Group 19112">
          <path id="Union_354" data-name="Union 354" d="M-4210.552,4971.087v-2.1a9.968,9.968,0,0,1,10.022-9.9,9.957,9.957,0,0,1,9.978,9.9v2.1Zm4-18a6,6,0,0,1,6-6,6,6,0,0,1,6,6,6,6,0,0,1-6,6A6,6,0,0,1-4206.552,4953.087Z" transform="translate(4239 -4932)" fill="#de6840"/>
          <path id="Union_353" data-name="Union 353" d="M-4210.552,4971.087v-2.1a9.968,9.968,0,0,1,10.022-9.9,9.957,9.957,0,0,1,9.978,9.9v2.1Zm4-18a6,6,0,0,1,6-6,6,6,0,0,1,6,6,6,6,0,0,1-6,6A6,6,0,0,1-4206.552,4953.087Z" transform="translate(4221 -4928)" fill="#fff"/>
        </g>
      </g>
      <g id="Group_19114" data-name="Group 19114">
        <circle id="Ellipse_751" data-name="Ellipse 751" cx="15" cy="15" r="15" transform="translate(1502 2882)" fill="#91ba83"/>
        <path id="Path_18868" data-name="Path 18868" d="M292.349,225.22h-1.162a1.308,1.308,0,0,1-1.318-1.32,1.323,1.323,0,0,1,1.318-1.319h1.62l.761-4.411H292.1a1.319,1.319,0,0,1,0-2.639h1.931l.5-3.016a1.293,1.293,0,0,1,1.318-1.09,1.353,1.353,0,0,1,1.317,1.549l-.45,2.557h3.97l.506-3.016a1.3,1.3,0,0,1,1.342-1.09,1.339,1.339,0,0,1,1.293,1.549l-.433,2.557h1.17a1.323,1.323,0,0,1,1.31,1.32,1.339,1.339,0,0,1-1.31,1.319h-1.621l-.76,4.411h1.441a1.307,1.307,0,0,1,1.317,1.319,1.323,1.323,0,0,1-1.317,1.32h-1.9l-.533,3.115a1.3,1.3,0,0,1-1.317,1.09,1.34,1.34,0,0,1-1.318-1.542l.483-2.663h-3.977l-.533,3.115a1.319,1.319,0,0,1-1.336,1.09,1.3,1.3,0,0,1-1.293-1.542Zm7.119-2.639.761-4.411h-3.953l-.76,4.411Z" transform="translate(1219.131 2676.575)" fill="#fff"/>
      </g>
      <g id="Group_19102" data-name="Group 19102" transform="translate(1109.299 2811.898)">
        <circle id="Ellipse_752" data-name="Ellipse 752" cx="15" cy="15" r="15" transform="translate(-0.299 -0.898)" fill="#0fd7ad"/>
        <path id="Path_18869" data-name="Path 18869" d="M144.2,68.652a9,9,0,1,0,2.116,17.874,8.531,8.531,0,0,0,2.142-.535.723.723,0,0,0,.461-1.007.616.616,0,0,0-.3-.408.823.823,0,0,0-.687-.037,6.538,6.538,0,0,1-1.8.408,7.406,7.406,0,1,1,6.47-8.239,7.037,7.037,0,0,1-.414,3.454,2.455,2.455,0,0,1-1.165,1.343l-.179.021c-.227.028-.292-.037-.3-.043a2.038,2.038,0,0,1-.215-.472c-.211-.873-.428-3.617-.428-3.649l-.04-.327a4.662,4.662,0,1,0-9.249,1.1,4.821,4.821,0,0,0,5.229,4.351,4.382,4.382,0,0,0,2.9-1.6l.048.41a2.342,2.342,0,0,0,.588,1.255,1.88,1.88,0,0,0,1.654.562,1.916,1.916,0,0,0,.541-.122,4.206,4.206,0,0,0,2.09-2.158c.018-.034.029-.06.033-.065l.027-.05a9.057,9.057,0,0,0-9.518-12.06Zm1.441,12.172a3.113,3.113,0,0,1-3.376-2.893,3.164,3.164,0,0,1,2.606-3.622,3.215,3.215,0,0,1,3.408,2.91A3.167,3.167,0,0,1,145.639,80.824Z" transform="translate(-130.545 -63.487)" fill="#fff"/>
      </g>
      <g id="Group_19115" data-name="Group 19115">
        <circle id="Ellipse_747" data-name="Ellipse 747" cx="15" cy="15" r="15" transform="translate(1215 2888)" fill="#073570"/>
        <path id="Union_356" data-name="Union 356" d="M-3043.641,7738.683a3.763,3.763,0,0,1-2.074-2.128,4.131,4.131,0,0,1-.283-1.517,4.341,4.341,0,0,1,.276-1.554,3.753,3.753,0,0,1,2.074-2.16,4.19,4.19,0,0,1,1.68-.325,4.1,4.1,0,0,1,1.667.325,4,4,0,0,1,2.3,4.009,1.589,1.589,0,0,1-.035.293h-5.895a2.372,2.372,0,0,0,.219.812,2.01,2.01,0,0,0,.451.6,2,2,0,0,0,.625.383,2.057,2.057,0,0,0,.728.132,2.21,2.21,0,0,0,1.1-.288,1.511,1.511,0,0,0,.707-.757l1.672.47a3.42,3.42,0,0,1-1.346,1.453,4.136,4.136,0,0,1-2.2.565A4.164,4.164,0,0,1-3043.641,7738.683Zm.907-6.114a1.916,1.916,0,0,0-.6.391,2.053,2.053,0,0,0-.431.6,2.179,2.179,0,0,0-.2.783h3.958a2.061,2.061,0,0,0-.631-1.393,1.922,1.922,0,0,0-1.362-.524A1.932,1.932,0,0,0-3042.734,7732.568ZM-3056,7739v-10h5.978a2.422,2.422,0,0,1,1.055.226,2.552,2.552,0,0,1,.8.584,2.582,2.582,0,0,1,.511.816,2.465,2.465,0,0,1,.183.924,2.509,2.509,0,0,1-.41,1.371,2.419,2.419,0,0,1-1.2.952,2.906,2.906,0,0,1,1.519.909,2.437,2.437,0,0,1,.559,1.639,2.144,2.144,0,0,1-.284,1.113,2.418,2.418,0,0,1-.779.8,3.791,3.791,0,0,1-1.15.491,5.506,5.506,0,0,1-1.391.169Zm2.172-1.647h3.226a1.544,1.544,0,0,0,.557-.1,1.38,1.38,0,0,0,.448-.273,1.328,1.328,0,0,0,.3-.416,1.19,1.19,0,0,0,.109-.507,1.333,1.333,0,0,0-.1-.515,1.393,1.393,0,0,0-.276-.429,1.237,1.237,0,0,0-.41-.288,1.221,1.221,0,0,0-.519-.106h-3.335Zm0-4.168h2.894a1.368,1.368,0,0,0,.936-.338,1.173,1.173,0,0,0,.386-.93,1.21,1.21,0,0,0-.354-.915,1.221,1.221,0,0,0-.874-.338h-2.989ZM-3044,7730v-1h5v1Z" transform="translate(4277 -4831)" fill="#fff"/>
      </g>
      <g id="Group_19117" data-name="Group 19117">
        <circle id="Ellipse_744" data-name="Ellipse 744" cx="44" cy="44" r="44" transform="translate(1347 2793)" fill="#ff6d66"/>
        <path id="Path_18927" data-name="Path 18927" d="M113.583,151a30,30,0,1,0,30,30,30.034,30.034,0,0,0-30-30Zm19.74,14.159a25.229,25.229,0,0,1,5.6,15.452,62.654,62.654,0,0,0-11.723-1.132,47.662,47.662,0,0,0-5.781.336c-.164-.405-.332-.807-.5-1.212-.511-1.2-1.058-2.385-1.627-3.557,8.871-3.659,13.149-8.736,14.035-9.886Zm-19.74-9.463a25.248,25.248,0,0,1,16.7,6.292c-.708.968-4.537,5.763-13.091,9a137.386,137.386,0,0,0-9.323-14.638,25.414,25.414,0,0,1,5.716-.65ZM102.7,158.153a163.446,163.446,0,0,1,9.272,14.455,95.7,95.7,0,0,1-22.906,3.057h-.248A25.437,25.437,0,0,1,102.7,158.153ZM88.237,181.037q0-.312.011-.625c.15,0,.376,0,.664,0a94.818,94.818,0,0,0,25.313-3.6c.686,1.337,1.335,2.7,1.94,4.05-.284.084-.565.164-.843.256-12.671,4.1-19.63,14.941-20.7,16.712a25.222,25.222,0,0,1-6.383-16.792Zm25.346,25.342a25.208,25.208,0,0,1-15.458-5.274c.722-1.424,5.978-10.9,19.86-15.733l.029-.011a105.859,105.859,0,0,1,5.358,19.049,25.126,25.126,0,0,1-9.79,1.968Zm14.356-4.466a111.567,111.567,0,0,0-4.858-17.8,33.344,33.344,0,0,1,5.1-.383,37.557,37.557,0,0,1,10.406,1.457,25.4,25.4,0,0,1-10.647,16.723Z" transform="translate(1277.417 2656.001)" fill="#fff"/>
      </g>
    </g>
  </g>
</svg>
